<svg width="203" height="46" viewBox="0 0 203 46" fill="none" xmlns="http://www.w3.org/2000/svg">
<path d="M19.72 14.28C18.6533 13.8267 17.6133 13.4933 16.6 13.28C15.6133 13.0667 14.6667 12.96 13.76 12.96C12.2933 12.9867 10.9733 13.2667 9.8 13.8C8.65333 14.3333 7.68 15.08 6.88 16.04C6.08 16.9733 5.46667 18.0667 5.04 19.32C4.61333 20.5733 4.4 21.92 4.4 23.36C4.4 24.8267 4.6 26.1867 5 27.44C5.4 28.6933 5.97333 29.8 6.72 30.76C7.49333 31.72 8.44 32.4667 9.56 33C10.7067 33.5333 12 33.8 13.44 33.8C14.7467 33.8 15.8 33.72 16.6 33.56C17.4267 33.3733 18.04 33.1467 18.44 32.88C18.8667 32.5867 19.12 32.2933 19.2 32C19.4133 31.3867 19.52 30.6933 19.52 29.92C19.52 29.1467 19.52 28.32 19.52 27.44C19.52 26.9333 19.48 26.5733 19.4 26.36C19.3467 26.12 19.2267 26 19.04 26C18.0533 26 17.16 26 16.36 26C15.56 26 14.9333 26 14.48 26C13.8133 26 13.3067 25.8267 12.96 25.48C12.6133 25.1067 12.44 24.68 12.44 24.2C12.44 23.72 12.6133 23.3067 12.96 22.96C13.3067 22.5867 13.8133 22.4 14.48 22.4C15.1733 22.4 15.9733 22.4 16.88 22.4C17.7867 22.4 18.5733 22.4 19.24 22.4C20.0133 22.4 20.6933 22.5333 21.28 22.8C21.8667 23.0667 22.32 23.5467 22.64 24.24C22.96 24.9067 23.12 25.84 23.12 27.04C23.12 28.0533 23.12 28.9067 23.12 29.6C23.12 30.2667 23.08 30.88 23 31.44C22.9467 31.9733 22.8267 32.5333 22.64 33.12C22.4533 33.6267 22.12 34.1333 21.64 34.64C21.16 35.1467 20.52 35.6133 19.72 36.04C18.9467 36.44 18.0267 36.76 16.96 37C15.92 37.2667 14.7467 37.4 13.44 37.4C11.4933 37.4 9.73333 37.04 8.16 36.32C6.61333 35.6 5.29333 34.6 4.2 33.32C3.10667 32.04 2.26667 30.56 1.68 28.88C1.09333 27.1733 0.8 25.3333 0.8 23.36C0.8 20.7733 1.33333 18.4267 2.4 16.32C3.46667 14.2133 4.96 12.5333 6.88 11.28C8.82667 10.0267 11.12 9.38666 13.76 9.36C14.48 9.36 15.24 9.41333 16.04 9.52C16.84 9.62667 17.6533 9.8 18.48 10.04C19.3333 10.28 20.2 10.5733 21.08 10.92C21.72 11.1867 22.12 11.56 22.28 12.04C22.4667 12.4933 22.4667 12.9467 22.28 13.4C22.0933 13.8267 21.7733 14.1467 21.32 14.36C20.8667 14.5467 20.3333 14.52 19.72 14.28ZM33.6528 37.04C32.5328 36.64 31.5461 36.1467 30.6928 35.56C29.8661 34.9467 29.1328 34.16 28.4928 33.2C27.9328 32.3733 27.4928 31.44 27.1728 30.4C26.8528 29.36 26.6928 28.24 26.6928 27.04C26.6928 25.04 27.1195 23.2667 27.9728 21.72C28.8528 20.1467 30.0395 18.92 31.5328 18.04C33.0528 17.1333 34.7595 16.68 36.6528 16.68C38.5728 16.68 40.2795 17.1333 41.7728 18.04C43.2928 18.92 44.4795 20.1467 45.3328 21.72C46.2128 23.2667 46.6528 25.04 46.6528 27.04C46.6528 28.2133 46.4928 29.32 46.1728 30.36C45.8795 31.3733 45.4395 32.3067 44.8528 33.16C44.2128 34.1467 43.4795 34.9333 42.6528 35.52C41.8261 36.1067 40.8128 36.6133 39.6128 37.04C38.9995 37.2533 38.4661 37.24 38.0128 37C37.5861 36.76 37.2928 36.4133 37.1328 35.96C36.9728 35.5067 36.9995 35.0667 37.2128 34.64C37.4261 34.1867 37.8528 33.84 38.4928 33.6C39.2928 33.3333 39.9461 33.0267 40.4528 32.68C40.9595 32.3067 41.4395 31.8 41.8928 31.16C42.2661 30.6 42.5461 29.9733 42.7328 29.28C42.9461 28.5867 43.0528 27.84 43.0528 27.04C43.0528 25.7333 42.7728 24.5733 42.2128 23.56C41.6795 22.52 40.9328 21.72 39.9728 21.16C39.0128 20.5733 37.9061 20.28 36.6528 20.28C35.3995 20.28 34.2928 20.5733 33.3328 21.16C32.3728 21.72 31.6261 22.52 31.0928 23.56C30.5595 24.5733 30.2928 25.7333 30.2928 27.04C30.2928 27.84 30.3861 28.6 30.5728 29.32C30.7861 30.0133 31.0795 30.64 31.4528 31.2C31.7461 31.6267 32.0528 31.9867 32.3728 32.28C32.7195 32.5733 33.0928 32.8267 33.4928 33.04C33.8928 33.2533 34.3328 33.44 34.8128 33.6C35.4528 33.84 35.8795 34.1867 36.0928 34.64C36.3061 35.0667 36.3328 35.5067 36.1728 35.96C36.0128 36.4133 35.7061 36.76 35.2528 37C34.8261 37.24 34.2928 37.2533 33.6528 37.04ZM61.6125 32.4C62.2525 32.6667 62.8792 32.9067 63.4925 33.12C64.1325 33.3067 64.7592 33.4533 65.3725 33.56C65.9858 33.64 66.5725 33.68 67.1325 33.68C68.0658 33.68 68.9058 33.5467 69.6525 33.28C70.4258 32.9867 71.0392 32.5467 71.4925 31.96C71.9458 31.3733 72.1725 30.6133 72.1725 29.68C72.1725 28.6933 71.8792 27.9067 71.2925 27.32C70.7325 26.7067 70.0258 26.2133 69.1725 25.84C68.3458 25.44 67.5325 25.08 66.7325 24.76C65.7458 24.36 64.7992 23.9333 63.8925 23.48C63.0125 23.0267 62.2258 22.5067 61.5325 21.92C60.8658 21.3333 60.3325 20.6267 59.9325 19.8C59.5325 18.9733 59.3325 17.9867 59.3325 16.84C59.3325 15.72 59.5325 14.7067 59.9325 13.8C60.3325 12.8933 60.8925 12.12 61.6125 11.48C62.3592 10.84 63.2392 10.3467 64.2525 10C65.2658 9.65333 66.3992 9.48 67.6525 9.48C68.5858 9.48 69.5725 9.57333 70.6125 9.76C71.6792 9.94667 72.7725 10.2533 73.8925 10.68C74.5325 10.92 74.9458 11.2667 75.1325 11.72C75.3192 12.1733 75.3192 12.6267 75.1325 13.08C74.9725 13.5333 74.6658 13.8667 74.2125 14.08C73.7858 14.2933 73.2525 14.28 72.6125 14.04C71.7325 13.72 70.8658 13.48 70.0125 13.32C69.1858 13.16 68.3992 13.08 67.6525 13.08C66.7192 13.08 65.8925 13.2133 65.1725 13.48C64.4792 13.7467 63.9325 14.16 63.5325 14.72C63.1325 15.28 62.9325 15.9867 62.9325 16.84C62.9325 17.7467 63.1992 18.48 63.7325 19.04C64.2658 19.6 64.9325 20.0667 65.7325 20.44C66.5325 20.7867 67.3192 21.1067 68.0925 21.4C69.0792 21.8267 70.0258 22.2667 70.9325 22.72C71.8658 23.1733 72.6925 23.7067 73.4125 24.32C74.1325 24.9333 74.7058 25.68 75.1325 26.56C75.5592 27.4133 75.7725 28.4533 75.7725 29.68C75.7725 30.9067 75.5458 31.9867 75.0925 32.92C74.6658 33.8533 74.0525 34.6533 73.2525 35.32C72.4792 35.96 71.5592 36.4533 70.4925 36.8C69.4525 37.12 68.3325 37.28 67.1325 37.28C66.5992 37.28 66.0392 37.24 65.4525 37.16C64.8925 37.1067 64.3192 37.0133 63.7325 36.88C63.1458 36.7467 62.5458 36.5867 61.9325 36.4C61.3458 36.1867 60.7592 35.9467 60.1725 35.68C59.5592 35.4133 59.1592 35.0533 58.9725 34.6C58.8125 34.12 58.8258 33.6667 59.0125 33.24C59.2258 32.7867 59.5592 32.4667 60.0125 32.28C60.4658 32.0933 60.9992 32.1333 61.6125 32.4ZM80.3119 42C80.3119 41.4667 80.3119 40.88 80.3119 40.24C80.3119 39.6 80.3119 38.92 80.3119 38.2C80.3119 37.5067 80.3119 36.8 80.3119 36.08C80.3119 35.3867 80.3119 34.5867 80.3119 33.68C80.3119 32.7733 80.3119 31.76 80.3119 30.64C80.3119 29.4933 80.3119 28.28 80.3119 27C80.3119 24.9733 80.7252 23.1867 81.5519 21.64C82.3785 20.0933 83.5119 18.88 84.9519 18C86.3919 17.12 88.0319 16.68 89.8719 16.68C91.6852 16.68 93.3119 17.1333 94.7519 18.04C96.2185 18.92 97.3785 20.1467 98.2319 21.72C99.0852 23.2667 99.5119 25.0533 99.5119 27.08C99.5119 28.6 99.2585 30 98.7519 31.28C98.2719 32.5333 97.5919 33.6267 96.7119 34.56C95.8319 35.4667 94.8052 36.1733 93.6319 36.68C92.4852 37.1867 91.2452 37.44 89.9119 37.44C88.5519 37.44 87.2852 37.1867 86.1119 36.68C84.9385 36.1467 83.9119 35.4267 83.0319 34.52C82.1785 33.5867 81.5119 32.4933 81.0319 31.24C80.5519 29.9867 80.3119 28.6267 80.3119 27.16C80.3119 26.28 80.3119 25.3333 80.3119 24.32C80.3119 23.28 80.3119 22.2933 80.3119 21.36C80.3119 20.4 80.3119 19.6 80.3119 18.96C80.3119 18.2667 80.4852 17.76 80.8319 17.44C81.2052 17.0933 81.6319 16.92 82.1119 16.92C82.5919 16.92 83.0052 17.0933 83.3519 17.44C83.7252 17.7867 83.9119 18.2933 83.9119 18.96C83.9119 19.92 83.9119 20.7733 83.9119 21.52C83.9119 22.2667 83.9119 23.0667 83.9119 23.92C83.9119 24.7733 83.9119 25.8533 83.9119 27.16C83.9119 28.12 84.0585 29 84.3519 29.8C84.6452 30.6 85.0585 31.3067 85.5919 31.92C86.1252 32.5333 86.7519 33.0133 87.4719 33.36C88.2185 33.68 89.0319 33.84 89.9119 33.84C90.7652 33.84 91.5519 33.68 92.2719 33.36C93.0185 33.0133 93.6585 32.5467 94.1919 31.96C94.7252 31.3467 95.1385 30.6267 95.4319 29.8C95.7519 28.9733 95.9119 28.0667 95.9119 27.08C95.9119 26.0933 95.7652 25.1867 95.4719 24.36C95.1785 23.5333 94.7652 22.8133 94.2319 22.2C93.6985 21.5867 93.0585 21.12 92.3119 20.8C91.5652 20.4533 90.7519 20.28 89.8719 20.28C88.6719 20.28 87.6185 20.5733 86.7119 21.16C85.8319 21.72 85.1385 22.5067 84.6319 23.52C84.1519 24.5333 83.9119 25.6933 83.9119 27C83.9119 27.88 83.9119 28.8133 83.9119 29.8C83.9119 30.76 83.9119 31.76 83.9119 32.8C83.9119 33.8133 83.9119 34.84 83.9119 35.88C83.9119 36.7867 83.9119 37.5733 83.9119 38.24C83.9119 38.9067 83.9119 39.5333 83.9119 40.12C83.9119 40.7067 83.9119 41.3333 83.9119 42C83.9119 42.6667 83.7252 43.1733 83.3519 43.52C83.0052 43.8667 82.5919 44.04 82.1119 44.04C81.6319 44.04 81.2052 43.8667 80.8319 43.52C80.4852 43.1733 80.3119 42.6667 80.3119 42ZM109.551 37.04C108.431 36.64 107.445 36.1467 106.591 35.56C105.765 34.9467 105.031 34.16 104.391 33.2C103.831 32.3733 103.391 31.44 103.071 30.4C102.751 29.36 102.591 28.24 102.591 27.04C102.591 25.04 103.018 23.2667 103.871 21.72C104.751 20.1467 105.938 18.92 107.431 18.04C108.951 17.1333 110.658 16.68 112.551 16.68C114.471 16.68 116.178 17.1333 117.671 18.04C119.191 18.92 120.378 20.1467 121.231 21.72C122.111 23.2667 122.551 25.04 122.551 27.04C122.551 28.2133 122.391 29.32 122.071 30.36C121.778 31.3733 121.338 32.3067 120.751 33.16C120.111 34.1467 119.378 34.9333 118.551 35.52C117.725 36.1067 116.711 36.6133 115.511 37.04C114.898 37.2533 114.365 37.24 113.911 37C113.485 36.76 113.191 36.4133 113.031 35.96C112.871 35.5067 112.898 35.0667 113.111 34.64C113.325 34.1867 113.751 33.84 114.391 33.6C115.191 33.3333 115.845 33.0267 116.351 32.68C116.858 32.3067 117.338 31.8 117.791 31.16C118.165 30.6 118.445 29.9733 118.631 29.28C118.845 28.5867 118.951 27.84 118.951 27.04C118.951 25.7333 118.671 24.5733 118.111 23.56C117.578 22.52 116.831 21.72 115.871 21.16C114.911 20.5733 113.805 20.28 112.551 20.28C111.298 20.28 110.191 20.5733 109.231 21.16C108.271 21.72 107.525 22.52 106.991 23.56C106.458 24.5733 106.191 25.7333 106.191 27.04C106.191 27.84 106.285 28.6 106.471 29.32C106.685 30.0133 106.978 30.64 107.351 31.2C107.645 31.6267 107.951 31.9867 108.271 32.28C108.618 32.5733 108.991 32.8267 109.391 33.04C109.791 33.2533 110.231 33.44 110.711 33.6C111.351 33.84 111.778 34.1867 111.991 34.64C112.205 35.0667 112.231 35.5067 112.071 35.96C111.911 36.4133 111.605 36.76 111.151 37C110.725 37.24 110.191 37.2533 109.551 37.04ZM137.037 20.56C135.811 20.3733 134.771 20.4133 133.917 20.68C133.064 20.92 132.371 21.3333 131.837 21.92C131.331 22.48 130.957 23.16 130.717 23.96C130.477 24.76 130.357 25.6267 130.357 26.56C130.357 27.1733 130.357 27.88 130.357 28.68C130.357 29.48 130.357 30.2933 130.357 31.12C130.357 31.9467 130.357 32.7333 130.357 33.48C130.357 34.2267 130.357 34.8667 130.357 35.4C130.357 35.9333 130.237 36.36 129.997 36.68C129.757 37 129.451 37.2133 129.077 37.32C128.731 37.4533 128.371 37.4667 127.997 37.36C127.651 37.2533 127.357 37.04 127.117 36.72C126.877 36.3733 126.757 35.9333 126.757 35.4C126.757 34.84 126.757 34.1467 126.757 33.32C126.757 32.4667 126.757 31.5867 126.757 30.68C126.757 29.7467 126.757 28.8667 126.757 28.04C126.757 27.2133 126.757 26.5467 126.757 26.04C126.757 25.2933 126.757 24.5067 126.757 23.68C126.757 22.8533 126.757 22.0267 126.757 21.2C126.757 20.3467 126.757 19.56 126.757 18.84C126.757 18.1467 126.931 17.64 127.277 17.32C127.651 16.9733 128.077 16.8 128.557 16.8C129.037 16.8 129.451 16.9733 129.797 17.32C130.171 17.6667 130.357 18.1733 130.357 18.84C130.357 19.72 130.357 20.5467 130.357 21.32C130.357 22.0667 130.357 22.8267 130.357 23.6C130.357 24.3467 130.357 25.16 130.357 26.04C130.357 26.3867 130.357 26.96 130.357 27.76C130.357 28.56 130.357 29.4533 130.357 30.44C130.357 31.4267 130.357 32.3733 130.357 33.28C130.357 34.16 130.357 34.8667 130.357 35.4C130.357 35.9333 130.237 36.36 129.997 36.68C129.757 37 129.451 37.2133 129.077 37.32C128.731 37.4533 128.371 37.4667 127.997 37.36C127.651 37.2533 127.357 37.04 127.117 36.72C126.877 36.3733 126.757 35.9333 126.757 35.4C126.757 34.6533 126.757 33.7467 126.757 32.68C126.757 31.6133 126.757 30.5867 126.757 29.6C126.757 28.6133 126.757 27.8667 126.757 27.36C126.757 26.2133 126.891 25.0933 127.157 24C127.451 22.9067 127.877 21.8933 128.437 20.96C128.997 20.0267 129.704 19.2267 130.557 18.56C131.411 17.8933 132.411 17.4133 133.557 17.12C134.731 16.8267 136.051 16.7733 137.517 16.96C138.184 17.0667 138.664 17.32 138.957 17.72C139.251 18.12 139.357 18.56 139.277 19.04C139.224 19.52 138.997 19.92 138.597 20.24C138.224 20.5333 137.704 20.64 137.037 20.56ZM144.384 35.4C144.384 34.76 144.384 34.1867 144.384 33.68C144.384 33.1733 144.384 32.6667 144.384 32.16C144.384 31.6533 144.384 31.0667 144.384 30.4C144.384 29.52 144.384 28.68 144.384 27.88C144.384 27.0533 144.384 26.2 144.384 25.32C144.384 24.4133 144.384 23.4133 144.384 22.32C144.384 21.2267 144.384 19.9467 144.384 18.48C144.384 17.92 144.384 17.3333 144.384 16.72C144.384 16.1067 144.384 15.52 144.384 14.96C144.384 14.3733 144.384 13.88 144.384 13.48C144.384 12.8133 144.557 12.3067 144.904 11.96C145.277 11.6133 145.704 11.44 146.184 11.44C146.664 11.44 147.077 11.6133 147.424 11.96C147.797 12.3067 147.984 12.8133 147.984 13.48C147.984 13.9333 147.984 14.3333 147.984 14.68C147.984 15.0267 147.984 15.3733 147.984 15.72C147.984 16.0667 147.984 16.4667 147.984 16.92C147.984 17.3467 147.984 17.8667 147.984 18.48C147.984 19.4667 147.984 20.4 147.984 21.28C147.984 22.1333 147.984 23.0133 147.984 23.92C147.984 24.8267 147.984 25.8 147.984 26.84C147.984 27.88 147.984 29.0667 147.984 30.4C147.984 31.12 147.984 31.72 147.984 32.2C147.984 32.68 147.984 33.16 147.984 33.64C147.984 34.0933 147.984 34.68 147.984 35.4C147.984 36.0667 147.797 36.5733 147.424 36.92C147.077 37.2667 146.664 37.44 146.184 37.44C145.704 37.44 145.277 37.28 144.904 36.96C144.557 36.6133 144.384 36.0933 144.384 35.4ZM150.824 20.68C150.424 20.68 150.037 20.68 149.664 20.68C149.291 20.68 148.917 20.68 148.544 20.68C147.744 20.68 146.997 20.68 146.304 20.68C145.637 20.68 144.904 20.68 144.104 20.68C143.864 20.68 143.637 20.68 143.424 20.68C143.211 20.68 142.971 20.68 142.704 20.68C142.464 20.68 142.211 20.68 141.944 20.68C141.277 20.68 140.771 20.5067 140.424 20.16C140.077 19.7867 139.904 19.36 139.904 18.88C139.904 18.4 140.077 17.9867 140.424 17.64C140.771 17.2667 141.277 17.08 141.944 17.08C142.291 17.08 142.571 17.08 142.784 17.08C142.997 17.08 143.197 17.08 143.384 17.08C143.597 17.08 143.837 17.08 144.104 17.08C144.851 17.08 145.584 17.08 146.304 17.08C147.051 17.08 147.797 17.08 148.544 17.08C148.971 17.08 149.344 17.08 149.664 17.08C150.011 17.08 150.397 17.08 150.824 17.08C151.491 17.08 151.997 17.2667 152.344 17.64C152.691 17.9867 152.864 18.4 152.864 18.88C152.864 19.36 152.691 19.7867 152.344 20.16C151.997 20.5067 151.491 20.68 150.824 20.68Z" fill="black"/>
<path d="M202.379 23.2276L175.076 45.5727L175.359 0.5403L202.379 23.2276Z" fill="#ACECA1"/>
<circle cx="190.5" cy="30.5" r="7.5" fill="#413F39"/>
</svg>
